<svg xmlns="http://www.w3.org/2000/svg" viewBox="0 0 64 64">
  <defs>
    <radialGradient id="c" cx="50%" cy="44%" r="62%">
      <stop offset="0%" stop-color="#fffef8"/>
      <stop offset="55%" stop-color="#fff6dd"/>
      <stop offset="100%" stop-color="#f0d998"/>
    </radialGradient>
    <filter id="g" x="-40%" y="-40%" width="180%" height="180%">
      <feGaussianBlur stdDeviation="2.6"/>
    </filter>
  </defs>
  <g transform="rotate(26 32 32)">
    <path d="M 32 3 Q 36.5 23 47 32 Q 36.5 41 32 61 Q 27.5 41 17 32 Q 27.5 23 32 3 Z" fill="#e8c15a" opacity="0.6" filter="url(#g)"/>
    <path d="M 32 3 Q 36.5 23 47 32 Q 36.5 41 32 61 Q 27.5 41 17 32 Q 27.5 23 32 3 Z" fill="url(#c)" stroke="#d9ab4a" stroke-width="1.4" stroke-linejoin="round"/>
  </g>
  <path d="M 13 15 L 13.8 17.2 L 16 18 L 13.8 18.8 L 13 21 L 12.2 18.8 L 10 18 L 12.2 17.2 Z" fill="#f2d78a" opacity="0.95"/>
  <path d="M 52 10.8 L 52.6 12.4 L 54.2 13 L 52.6 13.6 L 52 15.2 L 51.4 13.6 L 49.8 13 L 51.4 12.4 Z" fill="#f2d78a" opacity="0.8"/>
  <path d="M 50 48.4 L 50.7 50.3 L 52.6 51 L 50.7 51.7 L 50 53.6 L 49.3 51.7 L 47.4 51 L 49.3 50.3 Z" fill="#f2d78a" opacity="0.9"/>
</svg>
